<?xml version="1.0" encoding="utf-8"?>
<svg id="Layer_1" data-name="Layer 1" width="1020" height="970" viewBox="0 0 1020 970" xmlns="http://www.w3.org/2000/svg">
  <defs>
    <style>.cls-1{fill:#c00;}</style>
  </defs>
  <title>Flyway</title>
  <g>
    <path class="cls-1" d="M 429.338 582.105 C 434.911 573.621 438.185 563.835 438.838 553.705 L 394.238 562.905 C 392.59 563.22 390.916 563.387 389.238 563.405 C 369.919 563.068 358.21 541.944 368.161 525.381 C 371.706 519.482 377.519 515.296 384.238 513.805 L 485.438 493.005 C 501.053 489.789 514.755 480.511 523.538 467.205 C 529.161 458.612 532.531 448.742 533.338 438.505 L 488.538 447.705 C 486.89 448.02 485.216 448.187 483.538 448.205 C 471.557 448.236 461.238 439.763 458.938 428.005 C 456.238 414.405 465.438 401.305 479.038 398.505 L 579.038 378.005 C 598.538 374.005 609.938 358.005 615.038 348.905 C 619.54 340.727 622.586 331.827 624.038 322.605 L 309.438 387.205 L 309.438 625.005 L 390.238 608.405 C 406.242 605.167 420.305 595.707 429.338 582.105 Z" style="fill: rgb(88, 168, 70);"/>
    <path class="cls-1" d="M 509.938 207.505 C 421.938 207.505 345.038 225.305 309.338 250.905 L 309.338 336.005 L 654.338 265.205 C 661.648 263.726 668.786 268.41 670.338 275.705 L 672.638 287.005 C 678.438 315.305 673.438 346.705 658.738 373.205 C 642.738 402.005 617.938 421.105 588.838 427.105 L 583.338 428.205 C 584.694 452.24 578.048 476.048 564.438 495.905 C 548.138 520.105 522.738 536.405 494.238 542.305 L 488.938 543.405 C 491.813 597.865 454.526 646.278 401.138 657.405 L 309.338 676.205 L 309.338 699.005 C 345.038 724.705 421.938 742.505 509.938 742.505 C 597.938 742.505 674.838 724.705 710.538 699.005 L 710.538 250.905 C 674.838 225.305 597.938 207.505 509.938 207.505 Z" style="fill: rgb(88, 168, 70);"/>
  </g>
</svg>