<?xml version="1.0" encoding="UTF-8" standalone="no"?>
<svg
   id="Layer_1"
   data-name="Layer 1"
   width="93.738342"
   height="125"
   viewBox="0 0 93.738342 125"
   version="1.1"
   xmlns="http://www.w3.org/2000/svg"
   xmlns:svg="http://www.w3.org/2000/svg"
>
  <defs
     id="defs4">
    <style
       id="style2">.cls-1{fill:#c00;}</style>
  </defs>
  <title
     id="title6">Flyway</title>
  <g
     id="g12"
     transform="matrix(0.23364486,0,0,0.23364486,-72.275222,-48.482475)"
  >
    <path
       class="cls-1"
       d="m 429.338,582.105 c 5.573,-8.484 8.847,-18.27 9.5,-28.4 l -44.6,9.2 c -1.648,0.315 -3.322,0.482 -5,0.5 -19.319,-0.337 -31.028,-21.461 -21.077,-38.024 3.545,-5.899 9.358,-10.085 16.077,-11.576 l 101.2,-20.8 c 15.615,-3.216 29.317,-12.494 38.1,-25.8 5.623,-8.593 8.993,-18.463 9.8,-28.7 l -44.8,9.2 c -1.648,0.315 -3.322,0.482 -5,0.5 -11.981,0.031 -22.3,-8.442 -24.6,-20.2 -2.7,-13.6 6.5,-26.7 20.1,-29.5 l 100,-20.5 c 19.5,-4 30.9,-20 36,-29.1 4.502,-8.178 7.548,-17.078 9,-26.3 l -314.6,64.6 v 237.8 l 80.8,-16.6 c 16.004,-3.238 30.067,-12.698 39.1,-26.3 z"
       style="fill:#58a846"
       id="path8" />
    <path
       class="cls-1"
       d="m 509.938,207.505 c -88,0 -164.9,17.8 -200.6,43.4 v 85.1 l 345,-70.8 c 7.31,-1.479 14.448,3.205 16,10.5 l 2.3,11.3 c 5.8,28.3 0.8,59.7 -13.9,86.2 -16,28.8 -40.8,47.9 -69.9,53.9 l -5.5,1.1 c 1.356,24.035 -5.29,47.843 -18.9,67.7 -16.3,24.2 -41.7,40.5 -70.2,46.4 l -5.3,1.1 c 2.875,54.46 -34.412,102.873 -87.8,114 l -91.8,18.8 v 22.8 c 35.7,25.7 112.6,43.5 200.6,43.5 88,0 164.9,-17.8 200.6,-43.5 v -448.1 c -35.7,-25.6 -112.6,-43.4 -200.6,-43.4 z"
       style="fill:#58a846"
       id="path10" />
  </g>
</svg>
